<svg width="32" height="32" viewBox="0 0 32 32" fill="none" xmlns="http://www.w3.org/2000/svg">
<path d="M20.3164 17.9785L20.1701 18.1127L20.1191 18.3059C20.1441 18.2493 20.1723 18.1942 20.2037 18.1409C20.2384 18.0848 20.276 18.0307 20.3164 17.9785Z" fill="#1288EA"/>
<path d="M11.7324 18.0195C11.7646 18.0651 11.7955 18.1108 11.8237 18.1604C11.8384 18.1859 11.8505 18.2127 11.8639 18.2382L11.8317 18.1175L11.7324 18.0195Z" fill="#1288EA"/>
<path d="M13.2118 17.3208L13.2239 17.3369C13.2239 17.3262 13.2118 17.3154 13.2051 17.3047L13.2118 17.3208Z" fill="#1288EA"/>
<path d="M18.7897 17.3208V17.3047L18.7695 17.3369L18.7897 17.3208Z" fill="#1288EA"/>
<path d="M16 5.62617e-08C12.8355 5.62617e-08 9.74207 0.938383 7.11088 2.69649C4.4797 4.45459 2.42894 6.95344 1.21793 9.87706C0.00693247 12.8007 -0.309921 16.0177 0.307443 19.1214C0.924806 22.2251 2.44866 25.0761 4.6863 27.3137C6.92394 29.5513 9.77487 31.0752 12.8786 31.6926C15.9823 32.3099 19.1993 31.9931 22.1229 30.7821C25.0466 29.5711 27.5454 27.5203 29.3035 24.8891C31.0616 22.2579 32 19.1645 32 16C32.0002 13.8988 31.5864 11.8181 30.7824 9.87685C29.9784 7.93557 28.7999 6.17167 27.3141 4.6859C25.8283 3.20013 24.0644 2.02158 22.1231 1.21757C20.1819 0.413556 18.1012 -0.000176152 16 5.62617e-08V5.62617e-08ZM28.7734 10.2968C28.7609 10.8181 28.622 11.3285 28.3687 11.7842C28.1153 12.2399 27.755 12.6273 27.3189 12.913C26.8827 13.1987 26.3837 13.3743 25.8647 13.4245C25.3457 13.4747 24.8223 13.3982 24.3394 13.2014L22.5618 12.7251C22.111 12.7976 21.3973 12.9935 20.4743 13.5301C19.6693 13.997 19.24 14.425 19.0428 14.6638C19.3078 15.4343 19.2709 16.2766 18.9395 17.021C18.9797 17.1202 19.1152 17.3577 19.5459 17.6059C20.0369 17.8903 20.32 17.8742 20.4099 17.8554C20.7258 17.4846 21.1691 17.2453 21.6526 17.1848C22.136 17.1243 22.6246 17.2469 23.0222 17.5285C23.4198 17.8101 23.6976 18.2303 23.801 18.7064C23.9044 19.1825 23.8259 19.6801 23.581 20.1012C23.336 20.5224 22.9423 20.8366 22.4773 20.9821C22.0124 21.1276 21.5098 21.0939 21.0684 20.8875C20.6271 20.6811 20.279 20.317 20.0925 19.8669C19.9061 19.4167 19.8949 18.9131 20.061 18.4551C20.0289 18.3666 19.9001 18.1144 19.4144 17.834C18.9811 17.5844 18.7087 17.5871 18.6027 17.6032C18.1278 18.2671 17.4151 18.7221 16.6131 18.8737C16.5044 19.1662 16.3448 19.7484 16.3448 20.6768C16.3448 21.7434 16.5286 22.4612 16.6923 22.8865L18.274 24.4682C18.7352 24.9314 19.045 25.5236 19.1627 26.1666C19.2804 26.8095 19.2003 27.4731 18.9331 28.0696C18.6659 28.6661 18.2241 29.1676 17.666 29.5079C17.108 29.8481 16.4598 30.0112 15.8071 29.9755C15.1545 29.9398 14.528 29.7071 14.0103 29.308C13.4926 28.9089 13.1082 28.3622 12.9076 27.7401C12.707 27.118 12.6998 26.4497 12.8868 25.8234C13.0739 25.1971 13.4465 24.6423 13.9554 24.2321L15.297 22.8905C15.4593 22.4652 15.6445 21.7474 15.6445 20.6809C15.6445 19.7525 15.4889 19.1702 15.3762 18.8777C14.5741 18.7262 13.8615 18.2711 13.3866 17.6072C13.2806 17.5911 13.0069 17.5885 12.5749 17.838C12.1429 18.0875 11.9846 18.329 11.939 18.435C12.1148 18.8894 12.1138 19.3933 11.9363 19.847C11.7587 20.3007 11.4174 20.6714 10.9798 20.8857C10.5423 21.1 10.0402 21.1425 9.57288 21.0047C9.10553 20.8669 8.70685 20.5588 8.45559 20.1414C8.20433 19.7239 8.11876 19.2274 8.21578 18.7499C8.3128 18.2724 8.58535 17.8487 8.9796 17.5624C9.37386 17.2761 9.86114 17.148 10.3452 17.2035C10.8293 17.259 11.2749 17.494 11.5942 17.8621C11.6988 17.8769 11.9779 17.8796 12.4434 17.6099C12.8741 17.3617 13.0096 17.1256 13.0498 17.025C12.7184 16.2806 12.6814 15.4383 12.9465 14.6678C12.7493 14.429 12.3227 13.997 11.515 13.5341C10.592 12.9975 9.87825 12.8029 9.42747 12.7292L7.26749 13.3087C6.65231 13.4727 6.00232 13.4507 5.39967 13.2454C4.79702 13.0401 4.26876 12.6607 3.88166 12.1552C3.49457 11.6498 3.26602 11.0409 3.22489 10.4055C3.18376 9.77021 3.33191 9.13694 3.65061 8.58578C3.9693 8.03463 4.44424 7.59032 5.0154 7.30902C5.58655 7.02773 6.22827 6.92207 6.85946 7.0054C7.49065 7.08873 8.08297 7.35731 8.56155 7.7772C9.04012 8.19709 9.38348 8.74943 9.54822 9.36441L10.1265 11.5244C10.4136 11.8786 10.9435 12.3978 11.8705 12.9304C12.3931 13.2515 12.968 13.4786 13.569 13.6012C13.6187 13.5449 13.6656 13.4885 13.7193 13.4348C14.241 12.9121 14.9272 12.5856 15.6619 12.5105C15.729 12.4233 15.8645 12.1872 15.8645 11.6948C15.8645 11.2024 15.7558 10.9784 15.6847 10.871C15.2011 10.7926 14.7648 10.535 14.4625 10.1495C14.1603 9.7639 14.0143 9.27867 14.0536 8.79033C14.0929 8.302 14.3147 7.84637 14.6747 7.51415C15.0348 7.18192 15.5067 6.99745 15.9967 6.99745C16.4866 6.99745 16.9585 7.18192 17.3186 7.51415C17.6786 7.84637 17.9004 8.302 17.9397 8.79033C17.979 9.27867 17.833 9.7639 17.5308 10.1495C17.2285 10.535 16.7922 10.7926 16.3086 10.871C16.2375 10.9784 16.1288 11.2212 16.1288 11.6948C16.1288 12.1684 16.263 12.4233 16.3314 12.5105C17.0661 12.5856 17.7523 12.9121 18.274 13.4348C18.3264 13.4885 18.3746 13.5449 18.4243 13.6012C19.0253 13.4786 19.6002 13.2515 20.1228 12.9304C21.0458 12.3938 21.5757 11.8786 21.8669 11.5244L22.4451 9.36441C22.6477 8.60935 23.1181 7.95379 23.7685 7.52005C24.4189 7.0863 25.2048 6.90399 25.9798 7.00714C26.7547 7.11029 27.4656 7.49185 27.9799 8.08062C28.4942 8.6694 28.7767 9.42518 28.7748 10.2069V10.2378C28.7748 10.2539 28.7748 10.2754 28.7734 10.2968Z" fill="#1288EA"/>
</svg>
